<svg width="115" height="98" viewBox="0 0 115 98" fill="none" xmlns="http://www.w3.org/2000/svg">
<path d="M99.681 2.2137C99.681 2.2137 99.5408 2.14363 99.5058 2.1086C99.4357 2.1086 99.4007 2.07357 99.3306 2.03854C85.3494 -4.12735 66.848 7.08335 59.7348 23.1637C58.8938 25.0555 58.158 26.9473 57.4922 28.9092C56.8265 26.9824 56.0906 25.0555 55.2847 23.1637C48.1715 7.08335 29.6701 -4.12735 15.6889 2.03854C15.6188 2.03854 15.5488 2.1086 15.5137 2.1086C15.4436 2.1086 15.3735 2.17867 15.3385 2.2137C1.35735 8.37959 -2.81248 29.6099 4.2657 45.6902C18.4921 77.921 57.4922 97.6799 57.4922 97.6799C57.4922 97.6799 96.4923 77.921 110.719 45.6902C117.832 29.6099 113.627 8.37959 99.6459 2.2137H99.681Z" fill="#FF5569"/>
<path d="M91.3066 15.8768C91.3066 15.8768 91.3066 15.8768 91.2365 15.9819C91.2015 15.9118 91.1664 15.8768 91.1664 15.8768C91.1664 15.8768 81.4952 27.683 81.4952 40.0148C81.4952 46.1457 85.8403 52.3466 91.1664 52.3466H91.3066C96.6678 52.3466 100.978 46.1457 100.978 40.0148C100.978 27.683 91.3066 15.8768 91.3066 15.8768Z" fill="#F5F5F5"/>
</svg>
