<svg width="16" height="20" viewBox="0 0 16 20" fill="none" xmlns="http://www.w3.org/2000/svg">
<path d="M2 11.2852C2 9.63516 2.67 8.13516 3.76 7.04516L2.34 5.62516C0.9 7.07516 0 9.07516 0 11.2852C0 15.3652 3.05 18.7252 7 19.2152V17.1952C4.17 16.7152 2 14.2552 2 11.2852ZM16 11.2852C16 6.86516 12.42 3.28516 8 3.28516C7.94 3.28516 7.88 3.29516 7.82 3.29516L8.91 2.20516L7.5 0.785156L4 4.28516L7.5 7.78516L8.91 6.37516L7.83 5.29516C7.89 5.29516 7.95 5.28516 8 5.28516C11.31 5.28516 14 7.97516 14 11.2852C14 14.2552 11.83 16.7152 9 17.1952V19.2152C12.95 18.7252 16 15.3652 16 11.2852Z" fill="black"/>
</svg>
