<svg width="30" height="29" viewBox="0 0 30 29" fill="none" xmlns="http://www.w3.org/2000/svg">
<path d="M28.9052 0.630234C28.7449 0.470721 28.5425 0.36028 28.3216 0.311897C28.1007 0.263514 27.8706 0.279199 27.6583 0.357109L1.53332 9.85711C1.30802 9.94257 1.11404 10.0946 0.977159 10.2929C0.840277 10.4912 0.766968 10.7265 0.766968 10.9674C0.766968 11.2084 0.840277 11.4437 0.977159 11.642C1.11404 11.8403 1.30802 11.9923 1.53332 12.0777L11.7339 16.1509L19.2627 8.59836L20.9371 10.2727L13.3727 17.8371L17.4577 28.0377C17.5457 28.2587 17.698 28.4481 17.8949 28.5815C18.0918 28.7149 18.3242 28.7861 18.5621 28.7859C18.802 28.7809 19.0349 28.7034 19.2299 28.5635C19.425 28.4236 19.573 28.2279 19.6546 28.0021L29.1546 1.87711C29.2355 1.66701 29.255 1.43825 29.2108 1.21748C29.1667 0.996717 29.0607 0.793052 28.9052 0.630234Z" fill="white"/>
</svg>
