<svg width="16" height="18" viewBox="0 0 16 18" fill="none" xmlns="http://www.w3.org/2000/svg">
<path d="M13 12.4335C12.3667 12.4335 11.8 12.6835 11.3667 13.0752L5.425 9.61686C5.46667 9.42519 5.5 9.23353 5.5 9.03353C5.5 8.83353 5.46667 8.64186 5.425 8.45019L11.3 5.0252C11.75 5.44186 12.3417 5.70019 13 5.70019C14.3833 5.70019 15.5 4.58353 15.5 3.2002C15.5 1.81686 14.3833 0.700195 13 0.700195C11.6167 0.700195 10.5 1.81686 10.5 3.2002C10.5 3.4002 10.5333 3.59186 10.575 3.78353L4.7 7.20853C4.25 6.79186 3.65833 6.53353 3 6.53353C1.61667 6.53353 0.5 7.65019 0.5 9.03353C0.5 10.4169 1.61667 11.5335 3 11.5335C3.65833 11.5335 4.25 11.2752 4.7 10.8585L10.6333 14.3252C10.5917 14.5002 10.5667 14.6835 10.5667 14.8669C10.5667 16.2085 11.6583 17.3002 13 17.3002C14.3417 17.3002 15.4333 16.2085 15.4333 14.8669C15.4333 13.5252 14.3417 12.4335 13 12.4335ZM13 2.36686C13.4583 2.36686 13.8333 2.74186 13.8333 3.2002C13.8333 3.65853 13.4583 4.03353 13 4.03353C12.5417 4.03353 12.1667 3.65853 12.1667 3.2002C12.1667 2.74186 12.5417 2.36686 13 2.36686ZM3 9.86686C2.54167 9.86686 2.16667 9.49186 2.16667 9.03353C2.16667 8.57519 2.54167 8.20019 3 8.20019C3.45833 8.20019 3.83333 8.57519 3.83333 9.03353C3.83333 9.49186 3.45833 9.86686 3 9.86686ZM13 15.7169C12.5417 15.7169 12.1667 15.3419 12.1667 14.8835C12.1667 14.4252 12.5417 14.0502 13 14.0502C13.4583 14.0502 13.8333 14.4252 13.8333 14.8835C13.8333 15.3419 13.4583 15.7169 13 15.7169Z" fill="#000000"/>
</svg>
